<?xml version="1.0" encoding="utf-8"?>
<!-- Generator: Adobe Illustrator 21.0.2, SVG Export Plug-In . SVG Version: 6.00 Build 0)  -->
<svg version="1.1" id="Layer_1" xmlns="http://www.w3.org/2000/svg" xmlns:xlink="http://www.w3.org/1999/xlink" x="0px" y="0px"
	 viewBox="0 0 512 512" style="enable-background:new 0 0 512 512;" xml:space="preserve">
<style type="text/css">
	.st0{display:none;}
	.st1{display:inline;}
	.st2{fill:none;stroke:#A9CCDB;stroke-miterlimit:10;}
	.st3{fill:#FFFFFF;}
</style>
<g id="Grid_1_" class="st0">
	<g id="Layer_1_1_" class="st1">
		<g id="Grid">
			<g>
				<rect class="st2" width="512" height="512"/>
				<line class="st2" x1="0" y1="480" x2="512" y2="480"/>
				<line class="st2" x1="0" y1="448" x2="512" y2="448"/>
				<line class="st2" x1="0" y1="416" x2="512" y2="416"/>
				<line class="st2" x1="0" y1="384" x2="512" y2="384"/>
				<line class="st2" x1="0" y1="352" x2="512" y2="352"/>
				<line class="st2" x1="0" y1="320" x2="512" y2="320"/>
				<line class="st2" x1="0" y1="288" x2="512" y2="288"/>
				<line class="st2" x1="0" y1="256" x2="512" y2="256"/>
				<line class="st2" x1="0" y1="224" x2="512" y2="224"/>
				<line class="st2" x1="0" y1="192" x2="512" y2="192"/>
				<line class="st2" x1="0" y1="160" x2="512" y2="160"/>
				<line class="st2" x1="0" y1="128" x2="512" y2="128"/>
				<line class="st2" x1="0" y1="96" x2="512" y2="96"/>
				<line class="st2" x1="0" y1="64" x2="512" y2="64"/>
				<line class="st2" x1="0" y1="32" x2="512" y2="32"/>
				<line class="st2" x1="480" y1="0" x2="480" y2="512"/>
				<line class="st2" x1="448" y1="0" x2="448" y2="512"/>
				<line class="st2" x1="416" y1="0" x2="416" y2="512"/>
				<line class="st2" x1="384" y1="0" x2="384" y2="512"/>
				<line class="st2" x1="352" y1="0" x2="352" y2="512"/>
				<line class="st2" x1="320" y1="0" x2="320" y2="512"/>
				<line class="st2" x1="288" y1="0" x2="288" y2="512"/>
				<line class="st2" x1="256" y1="0" x2="256" y2="512"/>
				<line class="st2" x1="224" y1="0" x2="224" y2="512"/>
				<line class="st2" x1="192" y1="0" x2="192" y2="512"/>
				<line class="st2" x1="160" y1="0" x2="160" y2="512"/>
				<line class="st2" x1="128" y1="0" x2="128" y2="512"/>
				<line class="st2" x1="96" y1="0" x2="96" y2="512"/>
				<line class="st2" x1="64" y1="0" x2="64" y2="512"/>
				<line class="st2" x1="32" y1="0" x2="32" y2="512"/>
			</g>
		</g>
	</g>
</g>
<path class="st3" d="M400,160c-5.3,0-10.6,0.4-15.8,1.1C354.3,120.4,307.2,96,256,96s-98.3,24.4-128.2,65.1
	c-5.2-0.8-10.5-1.1-15.8-1.1C50.3,160,0,210.3,0,272s50.3,112,112,112c13.7,0,27.1-2.5,39.7-7.3c29,25.3,65.8,39.3,104.3,39.3
	c38.5,0,75.3-14.1,104.3-39.3c12.6,4.8,26,7.3,39.7,7.3c61.8,0,112-50.3,112-112S461.8,160,400,160z M400,352
	c-17.1,0-32.9-5.5-45.9-14.7C330.6,365.6,295.6,384,256,384c-39.6,0-74.6-18.4-98.1-46.7c-13,9.2-28.8,14.7-45.9,14.7
	c-44.2,0-80-35.8-80-80c0-44.2,35.8-80,80-80c10.8,0,21.1,2.2,30.4,6.1C163.7,156.7,206.3,128,256,128s92.3,28.7,113.5,70.1
	c9.4-3.9,19.7-6.1,30.5-6.1c44.2,0,80,35.8,80,80S444.2,352,400,352z"/>
</svg>
